<svg width="757" height="147" viewBox="0 0 757 147" fill="none" xmlns="http://www.w3.org/2000/svg">
<path d="M726.572 0H756.372L701.772 146.4H698.972L659.372 61.2L619.372 146.6H616.772L562.772 0H592.572L621.172 80.4L658.372 0H660.172L697.372 80.6L726.572 0Z" fill="#8615E1"/>
<path d="M547.248 24.8H467.448V61.4H538.248V86.2H467.448V121.6H547.248V146.4H439.648V0H547.248V24.8Z" fill="#8615E1"/>
<path d="M407.669 114.39V146.4H404.669L308.269 59.4V146.4H280.469V0H283.469L307.519 22.15L331.569 44.3L355.619 66.45L379.669 88.6L407.669 114.39Z" fill="#C81CE2"/>
<path d="M407.669 114.39L379.669 88.6V0H407.669V114.39Z" fill="url(#paint0_linear_31_13)"/>
<path d="M251.545 24.8H171.745V61.4H242.545V86.2H171.745V121.6H251.545V146.4H143.945V0H251.545V24.8Z" fill="#8615E1"/>
<path d="M55.6 99.8H27.8V146.4H0V0H66.4C96.2 0 116.8 20.8 116.8 50.4C116.8 72.4 104.8 92.2 86.4 97.2L123 146.4H89.6L55.6 99.8ZM27.8 24.8V75.4H59.8C83.4 75.4 89 62.6 89 50.2C89 36 80.4 24.8 59.8 24.8H27.8Z" fill="#8615E1"/>
<defs>
<linearGradient id="paint0_linear_31_13" x1="393.669" y1="0" x2="393.669" y2="114.39" gradientUnits="userSpaceOnUse">
<stop stop-color="#8615E1"/>
<stop offset="1" stop-color="#232323"/>
</linearGradient>
</defs>
</svg>
