<svg width="512" height="512" viewBox="0 0 512 512" fill="none" xmlns="http://www.w3.org/2000/svg">
<g clip-path="url(#clip0_29_10)">
<circle cx="256" cy="256" r="256" fill="#232323"/>
<path d="M337.326 232.96H348.398L364.204 270.701L379.245 232.96H392.057L406.889 270.701L422.974 232.96H433.976L413.643 279.405H399.508L385.581 242.918L371.376 279.405H357.311L337.326 232.96Z" fill="white"/>
<path d="M280.125 279.405V232.96H329.494V241.107H290.709V252.109H327.614V259.421H290.709V271.258H329.911V279.405H280.125Z" fill="white"/>
<path d="M206.208 279.405V232.96H222.851L257.736 271.606L257.527 232.96H267.763V279.405H251.052L216.375 240.968L216.584 279.405H206.208Z" fill="white"/>
<path d="M145.96 279.405V232.96H195.329V241.107H156.544V252.109H193.449V259.421H156.544V271.258H195.747V279.405H145.96Z" fill="white"/>
<path d="M77.8247 279.405V232.96H117.167C125.314 232.96 129.004 233.935 131.511 236.651C133.53 238.879 134.505 242.5 134.505 247.792C134.505 252.875 133.879 255.73 132.486 257.471C131.093 259.212 129.422 260.047 126.637 260.535C132.486 261.022 133.809 262.832 133.739 270.213V279.405H122.946V272.442C122.807 266.105 121.345 264.852 114.312 264.921H88.4784V279.405H77.8247ZM88.4784 256.357H113.964C121.763 256.357 123.712 254.964 123.712 249.393C123.712 242.987 122.111 241.664 114.173 241.664H88.4784V256.357Z" fill="white"/>
</g>
<defs>
<clipPath id="clip0_29_10">
<rect width="512.001" height="512.001" fill="white"/>
</clipPath>
</defs>
</svg>
