<svg width="64" height="64" viewBox="0 0 64 64" fill="none" xmlns="http://www.w3.org/2000/svg">
<path d="M3.88721 55.8245V9.00836H43.5441C51.7562 9.00836 55.4762 9.99101 58.003 12.7284C60.0385 14.9744 61.0212 18.6243 61.0212 23.9587C61.0212 29.0825 60.3895 31.9602 58.9857 33.7149C57.5819 35.4697 55.8974 36.3119 53.0898 36.8033C58.9857 37.2946 60.3193 39.1195 60.2491 46.5596V55.8245H49.3698V48.8056C49.2294 42.4184 47.7554 41.155 40.6663 41.2252H14.6261V55.8245H3.88721ZM14.6261 32.5919H40.3154C48.1766 32.5919 50.1419 31.1881 50.1419 25.573C50.1419 19.1156 48.5275 17.782 40.5259 17.782H14.6261V32.5919Z" fill="url(#paint0_linear_38_2)"/>
<defs>
<linearGradient id="paint0_linear_38_2" x1="180.722" y1="5.24705" x2="180.722" y2="82.6616" gradientUnits="userSpaceOnUse">
<stop stop-color="#C81CE2"/>
<stop offset="1" stop-color="#8516E1"/>
</linearGradient>
</defs>
</svg>
